<svg width="84" height="84" viewBox="0 0 84 84" fill="none" xmlns="http://www.w3.org/2000/svg">
<path d="M31.5 42C31.5 44.3206 30.5781 46.5462 28.9372 48.1872C27.2962 49.8281 25.0706 50.75 22.75 50.75C20.4294 50.75 18.2038 49.8281 16.5628 48.1872C14.9219 46.5462 14 44.3206 14 42C14 39.6794 14.9219 37.4538 16.5628 35.8128C18.2038 34.1719 20.4294 33.25 22.75 33.25C25.0706 33.25 27.2962 34.1719 28.9372 35.8128C30.5781 37.4538 31.5 39.6794 31.5 42Z" stroke="#FFD166" stroke-width="3"/>
<path d="M49 22.75L31.5 35M49 61.25L31.5 49" stroke="#FFD166" stroke-width="3" stroke-linecap="round"/>
<path d="M66.5 64.75C66.5 67.0706 65.5781 69.2962 63.9372 70.9372C62.2962 72.5781 60.0706 73.5 57.75 73.5C55.4294 73.5 53.2038 72.5781 51.5628 70.9372C49.9219 69.2962 49 67.0706 49 64.75C49 62.4294 49.9219 60.2038 51.5628 58.5628C53.2038 56.9219 55.4294 56 57.75 56C60.0706 56 62.2962 56.9219 63.9372 58.5628C65.5781 60.2038 66.5 62.4294 66.5 64.75ZM66.5 19.25C66.5 21.5706 65.5781 23.7962 63.9372 25.4372C62.2962 27.0781 60.0706 28 57.75 28C55.4294 28 53.2038 27.0781 51.5628 25.4372C49.9219 23.7962 49 21.5706 49 19.25C49 16.9294 49.9219 14.7038 51.5628 13.0628C53.2038 11.4219 55.4294 10.5 57.75 10.5C60.0706 10.5 62.2962 11.4219 63.9372 13.0628C65.5781 14.7038 66.5 16.9294 66.5 19.25Z" stroke="#FFD166" stroke-width="3"/>
</svg>
