<svg width="382" height="245" viewBox="0 0 382 245" fill="none" xmlns="http://www.w3.org/2000/svg">
<path fill-rule="evenodd" clip-rule="evenodd" d="M281.789 196.951C279.98 199.111 277.307 200.715 275.257 202.691C273.104 204.766 270.767 206.579 268.622 208.629C259.161 196.691 246.2 189.371 234.973 179.466C229.65 174.769 225.729 168.399 222.859 161.861C221.387 158.509 220.3 155.06 219.45 151.489C219.067 149.881 218.692 148.278 218.442 146.648C218.139 144.674 218.06 144.506 216.77 142.965C216.215 142.302 215.139 140.365 214.051 140.578C213.136 140.758 211.461 143.635 210.883 144.345C208.1 147.763 205.403 151.285 202.474 154.57C197.993 159.597 193.913 164.544 189.752 169.872C181.241 180.773 172.059 191.035 162.794 201.293C162.107 202.053 160.505 204.284 159.518 204.584C158.317 204.948 156.367 203.428 155.158 202.578C152.24 200.528 149.94 197.989 147.446 195.448C142.578 190.487 139.282 183.525 137.065 176.9C135.737 172.935 134.874 168.824 133.504 164.873C132.934 163.226 131.639 161.201 132.296 159.767C132.492 159.339 133.737 158.203 134.176 158.116C134.696 158.013 135.561 158.748 135.742 158.697C137.465 158.21 136.509 156.349 137.533 155.347C138.114 154.778 141.069 154.862 141.951 154.549C145.177 153.407 148.071 151.228 151.12 149.927C163.887 144.482 176.808 139.186 187.829 130.294C190.687 127.989 192.586 126.256 195.997 124.766C199.443 123.26 202.908 121.916 206.424 120.602C209.527 119.443 212.646 118.356 215.852 117.525C219.317 116.626 224.234 115.486 227.697 116.644C234.497 118.917 236.693 124.701 239.401 130.804C243.065 139.06 247.495 146.872 252.298 154.471C261.537 169.092 272.773 182.212 281.789 196.951Z" fill="#4B5043"/>
<path fill-rule="evenodd" clip-rule="evenodd" d="M76.99 67.6947C76.6158 67.4986 73.6942 68.7262 73.2038 68.914C71.245 69.6643 69.4 70.911 67.5545 71.9252C68.9689 73.7021 70.3836 75.4795 71.7975 77.2568C73.1837 73.7464 74.9655 70.8498 76.99 67.6947ZM77.9544 89.536C77.4732 89.5919 81.5358 99.6706 82.0102 100.802C83.7366 104.918 85.5492 108.994 87.2984 113.1C88.9932 117.078 91.1431 120.739 93.3091 124.455C95.1617 127.634 97.0672 132.567 99.8618 134.921C98.0973 126.84 98.3297 117.548 93.2686 110.762C88.0224 103.728 82.8355 96.8588 77.9544 89.536ZM281.789 197.31C273.95 184.494 264.136 173.156 255.961 160.568C251.384 153.52 246.928 146.382 243.075 138.88C240.273 133.422 238.531 125.636 234.202 121.464C232.294 119.625 230.256 117.826 227.697 117.003C224.194 115.876 219.371 116.993 215.852 117.884C209.294 119.544 202.888 122.121 196.677 124.828C190.376 127.574 185.001 132.506 179.309 136.469C173.202 140.72 166.592 143.817 159.751 146.528C153.794 148.888 148.494 152.277 142.569 154.653C141.388 155.126 138.979 155.057 137.988 155.674C136.921 156.339 137.341 158.302 136.045 159.026C135.461 159.353 135.266 158.169 134.817 158.188C134.268 158.212 133.768 158.877 133.239 159.298C131.086 161.013 132.405 162.157 133.258 164.517C136.037 172.207 137.531 180.031 141.433 187.291C144.641 193.258 149.233 198.606 154.64 202.556C155.462 203.158 158.143 205.487 159.108 205.332C159.977 205.193 161.745 202.808 162.346 202.16C165.068 199.221 167.557 196.059 170.277 193.116C174.482 188.566 178.529 183.895 182.61 179.283C187.346 173.93 191.538 167.864 195.804 162.144C197.767 159.512 200.293 157.369 202.474 154.929C205.407 151.648 208.1 148.121 210.883 144.704C211.724 143.67 213.135 141.025 214.443 141.056C215.36 141.078 216.976 143.306 217.455 144.004C219.238 146.6 219.229 151.287 220.116 154.527C222.278 162.427 226.178 170.143 231.526 176.24C236.845 182.302 243.657 186.613 249.948 191.486C256.762 196.766 263.218 202.169 268.622 208.988C270.767 206.938 273.104 205.124 275.257 203.05C277.308 201.074 279.98 199.471 281.789 197.31ZM180.877 233.568C182.401 233.584 184.982 234.552 186.345 233.969C182.301 229.349 178.587 225.386 173.47 222C168.16 218.487 162.868 215.005 157.711 211.258C147.317 203.706 139.673 194.749 135.331 182.173C134.214 178.934 133.465 175.537 132.645 172.208C132.205 170.415 131.327 162.027 129.837 161.303C128.955 160.873 122.312 165.693 121.259 166.294C118.798 167.699 116.328 168.788 113.784 169.888C108.316 172.252 102.678 174.055 96.8789 175.56C89.9263 177.364 85.1906 174.378 80.8836 168.737C75.9972 162.337 71.9365 155.115 67.4688 148.394C65.4371 145.337 63.7539 142.285 62.2535 138.913C61.2715 136.706 57.3767 130.754 58.7225 128.403C62.562 131.421 63.9434 137.422 66.5589 141.462C69.8186 146.498 73.4923 151.246 76.7688 156.277C79.5241 160.508 82.3351 165.635 86.4058 168.676C89.9864 171.351 93.388 170.529 97.2415 169.326C101.912 167.87 106.753 167.152 111.33 165.345C116.283 163.389 120.97 160.616 125.803 158.354C128.056 157.299 130.753 156.7 132.876 155.385C134.706 154.252 134.433 153.654 134.567 151.242C134.724 148.429 134.905 145.613 135.026 142.796C135.107 140.904 134.115 138.338 134.788 136.926C129.302 137.908 123.939 139.223 118.491 140.386C115.508 141.023 112.632 141.811 109.619 142.311C108.47 142.502 106.9 142.497 105.871 143.013C105.051 142.77 104.632 142.925 104.616 143.477C104.577 143.777 104.515 144.073 104.43 144.363C102.747 145.154 101.769 143.459 100.31 141.833C98.5092 139.827 97.161 137.568 95.84 135.211C92.8864 129.94 89.482 124.984 86.7487 119.565C83.963 114.041 81.7005 108.126 79.3386 102.395C77.1719 97.1372 75.7844 91.4507 73.3901 86.3172C72.3215 84.0258 70.9673 82.131 69.3859 80.1952C68.081 78.5978 66.0733 75.1519 64.1245 74.4181C63.6093 74.2241 62.2599 74.5501 61.6745 74.507C60.5078 74.421 59.4681 73.9788 58.2742 74.0756C55.6891 74.2845 52.8709 75.9721 50.8051 77.4558C52.1401 78.6842 55.4796 80.1774 53.0809 82.3903C50.7531 84.5386 49.4673 80.6849 48.5791 78.9965C44.3962 82.5425 45.0008 87.4319 44.5176 92.4422C44.2652 95.0579 43.6013 97.634 43.173 100.21C42.8645 102.065 43.0809 103.983 42.9928 105.876C42.768 110.687 42.2996 115.292 42.3225 120.035C42.3465 125.105 42.681 130.002 43.0741 135.035C43.7356 143.509 45.2512 151.987 46.551 160.393C47.2822 165.119 48.283 169.71 49.2546 174.359C50.3572 179.636 52.3969 184.634 53.5408 189.897C54.7063 188.367 55.583 188.36 57.468 188.562C58.918 188.718 59.892 188.362 59.8071 190.44C59.7522 191.787 58.6007 192.817 57.3266 193.052C55.6651 193.358 55.1006 192.503 54.2444 191.203C54.044 193.664 55.6467 196.236 56.2805 198.639C56.8803 200.916 57.2777 203.148 58.2858 205.327C59.2694 207.453 60.1116 209.55 61.1068 211.656C61.5651 212.625 61.9938 213.609 62.4574 214.575C62.6918 215.064 62.9678 215.738 63.3176 216.151C64.1382 217.117 64.0075 216.649 64.9679 217.2C67.0601 218.4 66.2744 218.101 66.3233 220.578C66.371 223.022 67.585 224.818 69.5318 226.191C73.6621 229.107 77.736 229.917 82.4317 231.39C86.8068 232.763 91.4152 233.94 96.048 233.913C101.722 233.881 107.321 233.113 112.995 233.035C119.255 232.949 125.575 232.984 131.822 233.208C134.395 233.3 136.785 233.418 139.269 234.096C142.155 234.885 144.946 234.572 147.919 234.452C154.263 234.198 160.826 233.691 167.087 233.645C171.595 233.612 176.352 233.288 180.877 233.568ZM345.381 236.107C346.509 236.722 349.037 236.47 350.171 236.299C352.168 235.998 352.382 235.181 353.649 233.342C355.831 230.176 357.602 227.144 358.885 223.476C361.341 216.456 362.344 209.275 363.422 201.932C364.62 193.773 362.432 185.316 361.649 177.212C361.469 175.353 361.223 173.51 360.939 171.665C360.768 170.562 360.724 166.809 360.021 165.854C358.67 164.019 352.387 165.499 349.917 165.665C343.023 166.13 336.083 166.239 329.192 166.32C325.517 166.363 321.823 166.522 318.185 166.551C316.514 166.565 314.88 166.479 313.204 166.311C312.643 166.255 312.095 166.122 311.53 166.09C309.596 165.979 309.741 165.69 309.241 167.458C308.365 170.556 309.039 174.498 308.809 177.713C308.502 182.01 308.335 186.367 308.411 190.673C308.482 194.652 308.351 198.622 308.494 202.61C308.554 204.262 308.729 205.608 309.151 207.185C309.628 208.968 310.153 213.134 311.341 214.368C311.476 214.509 312.486 214.181 312.755 214.531C313.168 215.07 313.092 216.21 313.376 216.559C314.293 217.686 316.191 217.775 317.567 218.282C321.343 219.672 324.807 221.182 328.366 223.056C331.546 224.731 336.673 226.156 338.585 229.46C339.462 230.975 339.58 232.972 340.386 234.535C341.304 236.315 339.467 235.385 341.716 236.107C342.729 236.432 344.343 236.107 345.381 236.107ZM10.1306 215.972C9.84451 220.083 7.60124 223.999 6.82037 228.041C6.45497 229.934 5.83516 231.794 5.40565 233.676C4.99378 235.481 3.50574 237.619 3.65639 239.405C9.14858 237.385 14.7117 236.877 20.4519 236.332C25.8924 235.815 31.6398 235.61 37.0346 235.607C42.532 235.604 48.41 235.05 54.0705 234.964C59.9902 234.874 65.9992 234.716 71.8331 234.082C68.7825 231.75 64.9655 229.559 62.713 226.314C60.2642 222.786 58.9925 218.366 56.8378 214.643C52.5139 207.173 49.765 197.903 47.4985 189.51C42.9226 172.568 37.8091 155.937 36.5767 138.363C34.2312 139.604 32.3694 144.414 31.1951 146.81C29.6962 149.869 28.9113 153.184 27.9369 156.435C25.9304 163.132 24.5418 170.075 22.0849 176.707C17.3893 189.386 14.3711 203.047 10.1306 215.972ZM308.263 117.225C309.279 124.803 311.409 132.478 311.49 140.147C311.509 141.835 311.232 143.708 311.572 145.372C311.936 147.148 313.119 148.718 313.802 150.406C314.886 153.086 317.632 158.578 314.984 160.848C314.93 158.693 313.021 155.957 312.059 154.073C310.609 151.235 308.703 148.639 307.132 145.871C303.842 140.076 300.155 134.406 295.915 129.298C291.785 124.322 287.025 119.908 282.645 115.17C281.33 113.746 270.774 100.044 270.354 100.236C273.629 113.271 279.194 124.612 286.811 135.526C290.546 140.876 295.028 144.397 299.574 148.929C303.36 152.704 310.495 156.74 309.186 162.925C315.104 162.338 320.984 161.399 326.955 161.399C325.973 153.596 325.221 145.917 323.468 138.242C321.478 129.528 320.129 120.552 318.445 111.76C316.726 102.785 313.811 94.0954 311.997 85.1367C310.26 76.5582 308.768 67.9949 307.495 59.3209C306.443 64.1272 306.831 69.4062 306.457 74.3101C306.076 79.3204 306.113 84.2383 306.24 89.2779C306.475 98.6387 307.441 107.886 308.263 117.225ZM333.908 72.5961C333.941 68.5893 334.693 64.6367 334.925 60.6395C334.996 59.4131 336.179 51.0459 335.076 50.6091C334.168 52.6516 333.957 55.2653 333.133 57.4083C332.309 59.5492 331.208 61.5887 330.418 63.7446C328.706 68.4148 328.116 73.6992 327.931 78.6644C327.514 89.8951 327.299 101.101 328.03 112.331C328.343 117.145 328.584 121.967 328.498 126.79C328.404 132.097 327.616 136.704 328.572 141.968C329.519 147.18 330.113 152.371 330.429 157.66C330.65 161.372 330.739 161.109 334.169 160.848C336.646 160.659 339.147 160.861 341.627 160.744C340.467 146.277 340.278 131.78 338.425 117.369C337.48 110.017 337.455 102.558 336.281 95.2333C335.698 91.5947 334.719 88.0292 334.156 84.3864C333.553 80.4752 333.85 76.5375 333.908 72.5961ZM83.0539 63.4918C89.6579 64.0825 96.6826 66.1208 103.452 64.7749C102.336 64.3083 99.4159 63.6647 100.73 61.8233C102.066 59.9508 104.318 62.3258 105.65 62.0806C106.472 61.9292 108.288 58.3832 108.794 57.649C109.944 55.9804 110.083 55.6897 112.15 55.262C114.152 54.8483 114.606 55.2963 114.86 53.241C115.151 50.8776 114.359 48.2204 114.437 45.8036C114.606 40.6007 116.232 36.038 117.745 31.1428C111.316 32.5867 105.029 34.2991 98.4551 35.2298C95.6449 35.6277 91.2729 36.5455 88.72 34.5733C88.0561 34.0605 88.1623 33.368 87.619 32.7737C86.7079 31.7764 85.0179 30.7448 83.7258 30.4607C75.774 28.7131 74.9983 40.4158 78.9832 44.7948C79.9813 45.8922 81.3699 46.434 82.392 47.4395C83.7562 48.7805 83.868 50.193 84.0672 52.24C84.4406 56.0785 83.9333 59.9318 82.3471 63.443L83.0539 63.4918ZM179.55 118.74C181.897 119.199 184.347 119.094 186.701 119.487C187.537 119.626 190.044 120.113 190.779 119.608C191.902 118.838 192.301 116.011 192.832 114.695C193.765 112.38 195.086 110.361 195.976 108.003C199.614 98.3752 203.007 88.7084 207.407 79.4089C205.72 78.9564 204.425 78.9386 202.726 78.7049C200.955 78.4613 199.35 77.3805 197.661 76.916C196.056 76.4746 194.374 76.5872 192.783 76.0738C191.907 75.7913 191.155 75.163 190.291 74.9434C188.914 74.5939 187.307 74.3896 186.488 75.3227C185.649 76.2798 185.354 78.9043 184.897 80.1406C183.681 83.4343 182.268 86.613 181.249 89.9823C180.329 93.0212 179.456 96.0279 178.647 99.0945C177.792 102.332 176.107 105 175.08 108.093C174.299 110.447 173.562 112.853 173.446 115.363C173.332 117.812 172.987 117.968 175.359 118.359C176.557 118.557 178.423 119.291 179.55 118.74ZM333.998 233.361C334.61 233.655 335.186 233.616 335.727 233.244C330.427 230.932 325.271 227.727 319.741 226.141C314.553 224.654 309.512 222.877 304.514 221.046C300.454 219.557 296.803 218.399 293.132 215.78C290.903 214.19 288.924 212.402 287.392 210.079C285.687 207.492 285.308 203.811 283.462 201.481C280.97 204.307 278.042 206.446 275.094 208.691C274.074 209.468 271.627 211.162 271.278 212.364C270.838 213.88 272.017 215.331 272.6 216.866C274.094 220.797 274.824 224.726 275.635 228.813C275.96 230.451 276.661 232.914 277.965 233.6C279.152 234.224 282.588 233.77 284.065 233.654C291.77 233.052 299.338 232.435 307.089 232.984C315.86 233.604 325.25 234.033 333.998 233.361ZM349.387 160.517C350.788 160.522 352.155 160.341 353.55 160.341C352.745 156.459 354.628 151.436 355.295 147.562C356.042 143.227 356.611 138.745 357.109 134.376C358.158 125.173 358.634 116.082 358.648 106.812C358.66 97.842 360.242 89.6448 362.458 81.0216C364.837 71.7606 368.733 63.4323 371.954 54.5009C368.421 56.4292 366.465 60.9414 364.608 64.391C362.261 68.7527 360.698 73.5822 359.739 78.4786C357.89 87.9246 355.862 97.399 353.729 106.829C351.507 116.648 350.201 126.557 347.656 136.296C346.415 141.045 344.727 146.888 344.633 151.786C344.595 153.812 344.003 158.055 344.893 159.814C345.724 161.461 347.564 160.685 349.387 160.517ZM138.021 148.334C137.947 149.343 137.878 150.302 137.704 151.298C139.644 151.279 142.1 149.201 143.764 148.268C145.79 147.132 147.819 145.879 149.801 144.737C153.627 142.532 157.971 141.078 162.057 139.267C166.75 137.185 171.064 134.671 175.552 132.165C177.12 131.29 188.387 126.248 188.198 124.87C185.724 124.785 183.251 124.7 180.777 124.615C178.656 124.543 175.371 125.037 173.34 124.361C172.228 123.99 170.979 122.624 170.559 121.555C170.144 120.497 171.078 115.631 170.535 115.32C167.767 118.239 166.026 122.117 163.55 125.265C160.815 128.745 157.281 130.776 153.385 132.625C149.083 134.667 144.631 136.249 140.234 137.999C138.38 138.737 138.417 139.159 138.255 141.258C138.075 143.603 138.094 145.982 138.021 148.334ZM361.566 236.585C366.229 237.102 371.008 236.807 375.708 237.21C377.418 237.356 379.788 237.575 378.068 239.944C376.984 241.436 373.514 240.958 371.94 241.061C367.713 241.339 363.238 241.189 359.002 241.125C358.11 241.112 357.125 240.838 356.223 240.899C355.183 240.97 353.937 241.743 352.988 241.737C352.404 241.733 352.194 241.097 351.69 241.038C350.592 240.911 349.494 240.818 348.387 240.818C331.643 240.822 315.13 240.475 298.428 240.456C290.442 240.447 282.328 240.305 274.344 239.918C272.668 239.836 263.121 240.191 263.386 237.074C263.522 235.469 266.637 235.243 267.775 235.073C268.617 234.947 269.491 234.966 270.336 234.92C272.578 234.796 273.561 235.353 273.088 232.819C271.293 223.21 268.077 215.268 261.207 208.359C255.589 202.71 248.824 197.585 242.461 192.867C234.735 187.138 228.467 181.114 223.88 172.348C221.201 167.229 218.959 161.995 217.582 156.335C217.087 154.299 217.076 151.983 216.469 150.02C216.002 148.508 214.938 147.451 214.311 145.885C206.624 159.14 196.436 170.23 187.094 182.181C182.63 187.891 177.538 193.314 172.205 198.281C170.623 199.755 169.146 201.294 167.669 202.88C166.433 204.208 164.472 205.388 163.428 206.861C162.427 208.274 162.674 208.207 164.197 209.329C166.211 210.812 168.43 212.044 170.475 213.49C173.745 215.802 177.313 217.755 180.237 220.537C183.398 223.545 186.16 227.031 188.924 230.423C190.765 232.685 193.182 235.586 193.645 238.445C193.799 239.391 194.381 241.73 193.612 242.423C192.955 243.015 193.021 242.791 192.206 242.429C191.137 241.956 190.822 240.871 189.516 240.353C186.175 239.029 182.132 239.484 178.656 239.468C175.178 239.452 171.672 239.855 168.196 239.84C160.258 239.807 152.489 240.47 144.554 240.826C136.126 241.204 127.594 240.297 119.194 240.425C112.97 240.521 106.58 240.04 100.185 240.397C96.8949 240.581 93.6641 240.156 90.4564 240.108C86.2567 240.046 81.9437 240.636 77.7079 240.72C70.7558 240.858 63.8885 240.857 56.8939 241.03C41.8485 241.402 26.8844 241.785 11.8302 242.032C9.82208 242.064 7.62368 241.994 5.63923 242.227C3.53299 242.475 4.62037 242.937 3.1752 243.72C-0.870617 245.911 0.0637124 237.789 0.160671 236.192C0.680722 227.632 2.78576 219.236 5.3155 211.109C7.71543 203.401 9.66382 195.334 11.6963 187.459C13.9212 178.841 16.8199 170.575 19.4522 162.041C22.1495 153.296 24.3454 144.21 29.2443 136.459C30.3601 134.693 31.5132 132.794 33.3081 131.681C35.3202 130.433 35.4067 131.161 35.4051 128.878C35.4039 126.727 35.5321 123.854 35.0405 121.801C34.5962 119.947 34.6647 121.046 33.6643 119.714C32.8502 118.631 31.9984 117.891 31.4142 116.575C27.8259 120.332 19.6121 118.349 16.1452 115.645C11.9019 112.334 8.66979 106.749 7.48546 101.43C6.5343 97.1583 7.70141 89.0161 12.2809 86.9621C14.5134 85.9607 22.7132 85.2038 23.0413 81.9403C23.2104 80.2556 20.3245 77.8868 19.6586 76.4382C18.4246 73.7547 17.2394 70.1851 16.8965 67.2434C16.2266 61.5015 18.7515 55.0808 22.7737 51.2022C30.1521 44.0871 43.1346 40.4356 52.6257 44.9499C50.62 37.0402 49.4092 30.2167 50.4193 21.9889C51.2895 14.9006 55.3406 10.9348 60.9149 7.40408C70.4272 1.37829 83.3628 -1.00005 94.2394 0.752063C96.7111 1.15038 99.0829 2.00451 101.371 2.6841C104.696 3.67142 108.676 3.34259 111.815 4.94674C114.091 6.10944 115.82 8.42573 117.819 9.97227C120.153 11.7777 122.092 14.4725 123.713 16.9646C127.181 22.2937 125.826 32.1843 122.924 37.5336C122.301 38.681 121.532 39.6469 120.503 40.4298C119.431 41.2447 117.796 41.4982 117.244 42.555C115.829 45.2622 117.194 51.1228 117.382 54.0488C117.602 57.4463 115.939 59.9984 112.207 60.2693C110.048 60.4265 109.979 59.1335 108.945 61.7939C108.276 63.5183 107.667 65.397 106.7 66.9778C104.707 70.236 101.056 69.9179 97.7307 69.8298C93.8812 69.7272 90.0894 69.0993 86.2379 68.7031C87.2552 72.0679 90.0397 74.6795 91.7786 77.677C94.1296 81.7314 95.5447 85.0921 95.927 89.8156C96.2202 93.4448 95.5872 96.3108 93.1817 99.0117C92.186 100.13 91.3034 100.185 91.5506 101.474C91.7013 102.261 93.019 103.559 93.4854 104.187C94.719 105.848 96.1513 107.373 97.2371 109.147C101.415 115.972 102.649 126.377 102.66 134.323C102.66 134.688 102.848 135.462 102.692 135.839C102.577 136.117 101.7 136.999 101.688 137.075C101.516 138.096 102.481 139.848 103.995 140.021C105.585 140.202 108.498 138.833 109.977 138.382C112.344 137.662 114.757 137.13 117.118 136.39C120.933 135.195 124.73 134.242 128.608 133.306C130.361 132.883 132.123 132.531 133.881 132.135C135.883 131.685 136.813 130.815 137.847 132.919C138.734 134.724 138.183 135.051 140.33 134.141C142.463 133.237 144.547 132.117 146.629 131.097C150.302 129.299 154.675 127.696 157.843 125.041C163.127 120.611 165.084 113.557 170.142 108.857C171.55 107.549 172.39 107.525 173.28 105.712C174.234 103.772 174.725 101.284 175.226 99.1966C176.104 95.5419 176.728 91.8743 177.524 88.2228C178.516 83.6738 180.659 79.5541 182.223 75.2152C182.832 73.5247 183.148 71.3759 184.131 69.8567C184.391 69.4538 184.889 69.2267 185.092 68.8933C185.791 67.7488 185.784 67.4345 185.965 66.0575C186.812 59.6236 190.533 63.0083 194.598 64.4837C196.31 65.1054 204.443 69.137 201.338 71.8181C205.04 72.927 210.969 72.3243 210.92 77.8015C210.894 80.608 209.268 83.6101 208.395 86.237C207.62 88.5694 206.871 90.9109 206.084 93.2396C204.359 98.3408 202.266 103.289 200.583 108.406C199.816 110.738 199.183 113.125 198.115 115.326C197.173 117.267 194.892 119.408 194.516 121.531C204.381 117.186 213.508 110.903 224.55 111.304C229.385 111.479 233.773 113.577 236.444 117.966C239.792 123.467 241.994 129.626 245.267 135.179C257.17 155.375 271.368 173.724 284.436 193.085C285.439 194.572 286.73 195.979 287.078 197.818C287.306 199.017 286.865 200.217 287.137 201.369C287.703 203.764 290.559 206.754 292.496 208.131C296.208 210.769 302.243 214.49 306.876 214.16C303.969 206.947 304.007 199.043 304.142 191.348C304.271 184.039 305.036 176.789 305.945 169.555C306.15 167.918 306.329 166.401 306.785 164.815C307.308 162.995 308.026 163.167 306.459 161.531C304.049 159.012 301.182 156.94 298.752 154.389C293.497 148.874 288.11 144.551 283.974 137.965C280.04 131.701 275.89 125.255 272.978 118.395C269.981 111.334 268.782 103.792 267.294 96.3133C266.69 93.2785 264.488 89.8905 264.931 86.7213C265.49 82.7162 267.289 85.6327 268.021 87.7881C270.256 94.3676 275.489 100.256 279.823 105.548C284.506 111.264 290.234 116.047 295.122 121.597C300.444 127.642 304.09 134.588 308.824 141.041C308.824 133.033 306.175 124.879 305.092 116.957C304.139 109.985 303.84 102.99 303.237 95.9877C301.869 80.0806 303.051 63.7048 304.971 47.9115C305.884 40.4108 305.366 33.0868 305.394 25.5605C305.403 23.1652 304.443 17.6446 305.667 15.519C308.011 11.4477 309.378 20.3501 309.497 21.6774C310.206 29.5842 308.934 37.4029 309.584 45.2758C310.262 53.4974 311.735 61.4882 312.988 69.6147C314.346 78.4137 316.557 87.0142 318.673 95.6444C320.895 104.706 322.764 113.956 325.234 122.945C325.9 120.119 324.966 116.648 324.781 113.771C324.517 109.653 324.003 105.534 323.958 101.405C323.887 94.8246 323.837 88.1223 324.198 81.5725C324.553 75.1167 324.446 68.3519 326.364 62.1323C327.274 59.1802 328.609 56.3002 329.915 53.5194C331.526 50.0904 332.096 46.7657 332.988 43.1188C333.753 39.9955 334.872 36.9546 335.381 33.7688C335.697 31.7876 336.581 25.939 338.778 30.3701C340.054 32.942 339.502 36.7548 339.538 39.5178C339.584 43.0601 339.058 46.5043 338.978 50.0317C338.821 56.9524 338.709 63.8649 338.209 70.7741C337.684 78.0228 338.142 84.5192 339.478 91.6617C340.94 99.48 341.368 107.315 342.125 115.229C342.516 119.315 343.175 123.379 343.493 127.471C343.661 129.638 342.798 135.852 344.302 137.395C344.448 133.642 345.489 129.885 346.279 126.228C347.215 121.895 347.592 117.34 348.282 112.945C349.398 105.825 351.565 99.0258 352.999 91.9855C355.954 77.4727 358.409 58.8204 370.792 49.3211C372.413 48.0781 374.193 47.1607 375.945 46.1378C376.936 45.5588 378.41 44.0606 379.544 43.7992C380.783 43.5138 381.299 43.7355 381.801 45.2188C382.501 47.2865 381.221 48.2523 380.026 49.7542C375.89 54.9509 374.123 61.6127 371.569 67.7075C365.721 81.6636 363.134 96.3836 363.104 111.469C363.089 119.367 362.561 126.983 361.745 134.833C360.867 143.28 359.711 152.214 357.225 160.341C359.719 160.918 362.424 160.058 363.1 163.05C363.267 163.785 362.966 164.654 363.15 165.61C363.329 166.54 363.759 167.465 364.013 168.38C364.539 170.271 364.817 172.137 365.073 174.08C366.061 181.586 367.758 188.726 367.939 196.337C368.105 203.372 366.771 210.5 365.542 217.4C364.303 224.35 360.751 230.274 357.955 236.559C359.159 236.559 360.362 236.572 361.566 236.585Z" fill="#4B5043"/>
<path fill-rule="evenodd" clip-rule="evenodd" d="M203.306 220.609C201.98 220.996 195.578 221.727 195.579 223.801C195.58 225.044 201.974 225.02 203.105 225.155C203.172 223.64 203.239 222.125 203.306 220.609ZM217.438 234.92C221.127 235.644 226.135 234.626 228.493 231.268C229.596 229.699 230.118 227.313 230.477 225.441C230.82 223.656 231.877 219.204 231.158 217.531C230.274 215.477 221.798 217.624 219.329 217.859C215.023 218.27 210.569 218.318 206.26 218.028C206.26 222.622 206.032 227.099 208.649 231.053C210.538 233.906 214.083 234.579 217.438 234.92ZM216.696 240.594C212.688 239.08 208.479 240.064 205.869 235.621C205.207 234.494 204.649 233.282 204.248 232.03C204.052 231.482 203.9 230.92 203.792 230.345C203.996 229.106 203.556 228.757 202.474 229.297C200.349 228.871 198.019 230.376 195.781 229.932C190.353 228.856 191.339 220.829 194.982 218.05C195.701 217.501 196.42 217.348 197.244 217.077C199.06 216.48 200.042 217.147 201.703 216.977C203.045 216.84 203.414 215.387 204.857 214.747C205.801 214.329 207.112 214.361 208.105 214.319C213.301 214.098 218.513 214.1 223.742 213.751C226.18 213.588 228.814 213.987 231.203 213.557C232.321 213.355 232.161 212.586 233.22 213.26C234.317 213.959 233.843 216.54 233.788 217.57C233.468 223.523 233.124 229.908 230.035 235.113C227.209 239.875 221.647 240.362 216.696 240.594Z" fill="#4B5043"/>
<path fill-rule="evenodd" clip-rule="evenodd" d="M4.99491 242.235C6.28462 242.22 7.57393 242.206 8.85923 242.192C7.56792 242.207 6.28142 242.221 4.99491 242.235Z" fill="#4B5043"/>
<path fill-rule="evenodd" clip-rule="evenodd" d="M363.112 115.303C363.11 114.024 363.107 112.745 363.104 111.469C363.106 112.749 363.109 114.026 363.112 115.303Z" fill="#4B5043"/>
<path fill-rule="evenodd" clip-rule="evenodd" d="M35.0445 120.555C35.0405 121.801 35.0365 123.047 35.0325 124.29C35.0361 123.043 35.0401 121.799 35.0445 120.555Z" fill="#4B5043"/>
<path fill-rule="evenodd" clip-rule="evenodd" d="M142.248 240.822C143.274 240.824 144.3 240.825 145.321 240.828C144.293 240.826 143.271 240.824 142.248 240.822Z" fill="#4B5043"/>
<path fill-rule="evenodd" clip-rule="evenodd" d="M79.9468 240.568C80.9729 240.571 81.9986 240.575 83.0198 240.579C81.9921 240.576 80.9697 240.572 79.9468 240.568Z" fill="#4B5043"/>
<path fill-rule="evenodd" clip-rule="evenodd" d="M304.278 188.828C304.233 189.669 304.187 190.509 304.142 191.348C304.188 190.507 304.233 189.667 304.278 188.828Z" fill="#4B5043"/>
<path fill-rule="evenodd" clip-rule="evenodd" d="M361.566 236.584C360.773 236.575 359.98 236.567 359.187 236.558C359.984 236.216 360.777 236.231 361.566 236.584Z" fill="#4B5043"/>
<path fill-rule="evenodd" clip-rule="evenodd" d="M291.168 240.308C291.737 240.299 292.306 240.29 292.87 240.28C292.299 240.289 291.734 240.298 291.168 240.308Z" fill="#4B5043"/>
<path fill-rule="evenodd" clip-rule="evenodd" d="M362.803 125.68C362.817 125.044 362.831 124.409 362.845 123.775C362.831 124.412 362.817 125.046 362.803 125.68Z" fill="#4B5043"/>
<path fill-rule="evenodd" clip-rule="evenodd" d="M309.584 45.2757C309.537 44.6202 309.49 43.965 309.443 43.311C309.49 43.967 309.537 44.6214 309.584 45.2757Z" fill="#4B5043"/>
<path fill-rule="evenodd" clip-rule="evenodd" d="M363.084 117.807C363.092 117.15 363.099 116.493 363.107 115.838C363.099 116.496 363.092 117.151 363.084 117.807Z" fill="#4B5043"/>
<path fill-rule="evenodd" clip-rule="evenodd" d="M184.118 239.493C184.624 239.501 185.13 239.509 185.631 239.515C185.124 239.507 184.621 239.5 184.118 239.493Z" fill="#4B5043"/>
<path fill-rule="evenodd" clip-rule="evenodd" d="M314.453 240.564C314.948 240.574 315.442 240.585 315.932 240.596C315.436 240.586 314.945 240.575 314.453 240.564Z" fill="#4B5043"/>
<path fill-rule="evenodd" clip-rule="evenodd" d="M367.882 194.359C367.846 193.782 367.811 193.206 367.776 192.631C367.811 193.207 367.847 193.783 367.882 194.359Z" fill="#4B5043"/>
<path fill-rule="evenodd" clip-rule="evenodd" d="M359.002 241.125C359.405 241.122 359.807 241.12 360.205 241.119C359.801 241.122 359.402 241.124 359.002 241.125Z" fill="#4B5043"/>
<path fill-rule="evenodd" clip-rule="evenodd" d="M304.145 240.591C304.544 240.581 304.943 240.571 305.337 240.561C304.937 240.572 304.541 240.582 304.145 240.591Z" fill="#4B5043"/>
<path fill-rule="evenodd" clip-rule="evenodd" d="M214.523 240.276C214.963 240.274 215.401 240.272 215.836 240.268C215.396 240.271 214.96 240.274 214.523 240.276Z" fill="#4B5043"/>
<path fill-rule="evenodd" clip-rule="evenodd" d="M113.314 240.275C113.731 240.278 114.149 240.281 114.561 240.285C114.143 240.282 113.729 240.279 113.314 240.275Z" fill="#4B5043"/>
<path fill-rule="evenodd" clip-rule="evenodd" d="M88.6935 240.344C89.119 240.32 89.5437 240.295 89.9652 240.271C89.5385 240.296 89.1162 240.32 88.6935 240.344Z" fill="#4B5043"/>
<path fill-rule="evenodd" clip-rule="evenodd" d="M206.568 72.9841C205.935 72.9279 205.302 72.8718 204.669 72.8153C205.303 72.8611 205.973 72.4748 206.568 72.9841Z" fill="#4B5043"/>
<path fill-rule="evenodd" clip-rule="evenodd" d="M367.942 236.833C367.318 236.768 366.694 236.703 366.069 236.637C366.694 236.703 367.318 236.768 367.942 236.833Z" fill="#4B5043"/>
<path fill-rule="evenodd" clip-rule="evenodd" d="M324.402 76.9529C324.36 77.5175 324.318 78.0825 324.276 78.6454C324.318 78.08 324.36 77.5162 324.402 76.9529Z" fill="#4B5043"/>
<path fill-rule="evenodd" clip-rule="evenodd" d="M363.241 100.493C363.284 99.9578 363.326 99.4226 363.369 98.8894C363.326 99.4255 363.283 99.959 363.241 100.493Z" fill="#4B5043"/>
<path fill-rule="evenodd" clip-rule="evenodd" d="M324.154 85.7109C324.109 86.2747 324.063 86.8381 324.019 87.3998C324.064 86.8356 324.109 86.2731 324.154 85.7109Z" fill="#4B5043"/>
<path fill-rule="evenodd" clip-rule="evenodd" d="M362.977 122.1C362.973 121.555 362.969 121.01 362.965 120.467C363.306 121.01 363.292 121.554 362.977 122.1Z" fill="#4B5043"/>
<path fill-rule="evenodd" clip-rule="evenodd" d="M304.287 200.329C304.282 200.875 304.277 201.421 304.272 201.965C303.922 201.414 303.992 200.871 304.287 200.329Z" fill="#4B5043"/>
<path fill-rule="evenodd" clip-rule="evenodd" d="M344.073 137.159C344.012 136.607 343.951 136.054 343.89 135.503C343.951 136.056 344.012 136.608 344.073 137.159Z" fill="#4B5043"/>
<path fill-rule="evenodd" clip-rule="evenodd" d="M14.6278 86.4368C14.214 87.0001 13.6502 86.6142 13.1582 86.6827C13.6486 86.6006 14.1382 86.5189 14.6278 86.4368Z" fill="#4B5043"/>
<path fill-rule="evenodd" clip-rule="evenodd" d="M219.279 214.143C218.757 214.143 218.234 214.144 217.711 214.145C218.234 214.144 218.757 214.143 219.279 214.143Z" fill="#4B5043"/>
<path fill-rule="evenodd" clip-rule="evenodd" d="M302.815 88.7568C302.864 89.216 302.912 89.6751 302.961 90.1326C302.912 89.6726 302.864 89.2147 302.815 88.7568Z" fill="#4B5043"/>
<path fill-rule="evenodd" clip-rule="evenodd" d="M44.4135 43.1582C43.8878 43.1689 43.3621 43.1796 42.8365 43.1903C43.3565 42.875 43.8806 42.7838 44.4135 43.1582Z" fill="#4B5043"/>
<path fill-rule="evenodd" clip-rule="evenodd" d="M324.14 93.6528C324.106 94.1343 324.072 94.6153 324.039 95.0947C324.073 94.6133 324.106 94.133 324.14 93.6528Z" fill="#4B5043"/>
<path fill-rule="evenodd" clip-rule="evenodd" d="M309.725 34.5533C309.766 34.1145 309.806 33.6756 309.847 33.2393C309.806 33.6789 309.766 34.1161 309.725 34.5533Z" fill="#4B5043"/>
<path fill-rule="evenodd" clip-rule="evenodd" d="M305.594 33.1785C305.553 33.6545 305.512 34.131 305.471 34.6055C305.512 34.1286 305.553 33.6533 305.594 33.1785Z" fill="#4B5043"/>
<path fill-rule="evenodd" clip-rule="evenodd" d="M77.2636 1.37427C76.7287 1.44113 76.1939 1.50799 75.6594 1.57444C76.1943 1.50758 76.7287 1.44113 77.2636 1.37427Z" fill="#4B5043"/>
<path fill-rule="evenodd" clip-rule="evenodd" d="M38.6309 43.5376C38.082 43.5954 37.5331 43.6532 36.9846 43.7109C37.5335 43.6532 38.0824 43.5954 38.6309 43.5376Z" fill="#4B5043"/>
<path fill-rule="evenodd" clip-rule="evenodd" d="M339.416 44.9329C339.45 44.4899 339.483 44.0465 339.516 43.606C339.483 44.0494 339.449 44.4911 339.416 44.9329Z" fill="#4B5043"/>
<path fill-rule="evenodd" clip-rule="evenodd" d="M20.615 118.043C20.9311 118.049 21.2468 118.053 21.5581 118.058C21.2408 118.053 20.9279 118.049 20.615 118.043Z" fill="#4B5043"/>
<path fill-rule="evenodd" clip-rule="evenodd" d="M305.61 172.719C305.579 173.209 305.547 173.699 305.515 174.189C305.547 173.698 305.579 173.208 305.61 172.719Z" fill="#4B5043"/>
<path fill-rule="evenodd" clip-rule="evenodd" d="M337.858 77.2536C337.845 76.7808 337.832 76.3084 337.819 75.8369C337.833 76.3101 337.845 76.7816 337.858 77.2536Z" fill="#4B5043"/>
<path fill-rule="evenodd" clip-rule="evenodd" d="M90.7281 0.255179C90.2405 0.255179 89.7528 0.255592 89.2661 0.255592C89.7537 -0.0894497 90.2409 -0.0807822 90.7281 0.255179Z" fill="#4B5043"/>
<path fill-rule="evenodd" clip-rule="evenodd" d="M220.905 111.53C220.371 111.544 219.837 111.558 219.304 111.572C219.828 111.189 220.363 111.18 220.905 111.53Z" fill="#4B5043"/>
<path fill-rule="evenodd" clip-rule="evenodd" d="M267.578 239.474C267.894 239.481 268.211 239.488 268.524 239.496C268.206 239.489 267.891 239.481 267.578 239.474Z" fill="#4B5043"/>
<path fill-rule="evenodd" clip-rule="evenodd" d="M279.5 240.049C279.816 240.037 280.132 240.025 280.444 240.014C280.126 240.026 279.813 240.037 279.5 240.049Z" fill="#4B5043"/>
<path fill-rule="evenodd" clip-rule="evenodd" d="M92.9164 240.275C93.2462 240.284 93.5759 240.293 93.9012 240.301C93.5703 240.293 93.2434 240.284 92.9164 240.275Z" fill="#4B5043"/>
<path fill-rule="evenodd" clip-rule="evenodd" d="M367.608 188.889C367.561 188.421 367.514 187.954 367.467 187.488C367.514 187.957 367.561 188.423 367.608 188.889Z" fill="#4B5043"/>
<path fill-rule="evenodd" clip-rule="evenodd" d="M324.544 110.094C324.582 110.54 324.619 110.985 324.656 111.428C324.619 110.982 324.581 110.538 324.544 110.094Z" fill="#4B5043"/>
<path fill-rule="evenodd" clip-rule="evenodd" d="M341.117 102.446C341.066 101.974 341.014 101.501 340.963 101.031C341.015 101.503 341.066 101.974 341.117 102.446Z" fill="#4B5043"/>
<path fill-rule="evenodd" clip-rule="evenodd" d="M95.5916 240.558C95.9242 240.552 96.2571 240.546 96.586 240.542C96.2519 240.548 95.9218 240.552 95.5916 240.558Z" fill="#4B5043"/>
<path fill-rule="evenodd" clip-rule="evenodd" d="M216.696 240.595C217.02 240.579 217.343 240.564 217.663 240.549C217.338 240.565 217.017 240.58 216.696 240.595Z" fill="#4B5043"/>
<path fill-rule="evenodd" clip-rule="evenodd" d="M338.412 67.9544C338.397 67.4758 338.382 66.9973 338.368 66.5195C338.383 66.9985 338.397 67.4762 338.412 67.9544Z" fill="#4B5043"/>
<path fill-rule="evenodd" clip-rule="evenodd" d="M64.0588 240.87C64.3833 240.867 64.7074 240.864 65.0275 240.862C64.7014 240.865 64.3805 240.868 64.0588 240.87Z" fill="#4B5043"/>
<path fill-rule="evenodd" clip-rule="evenodd" d="M338.276 240.865C338.61 240.868 338.943 240.872 339.273 240.875C338.937 240.872 338.607 240.868 338.276 240.865Z" fill="#4B5043"/>
<path fill-rule="evenodd" clip-rule="evenodd" d="M345.478 240.824C345.8 240.848 346.122 240.871 346.44 240.894C346.117 240.871 345.797 240.848 345.478 240.824Z" fill="#4B5043"/>
<path fill-rule="evenodd" clip-rule="evenodd" d="M348.387 240.818C348.715 240.828 349.043 240.838 349.366 240.846C349.037 240.836 348.712 240.827 348.387 240.818Z" fill="#4B5043"/>
<path fill-rule="evenodd" clip-rule="evenodd" d="M363.321 104.343C363.3 103.873 363.278 103.402 363.257 102.932C363.279 103.404 363.3 103.874 363.321 104.343Z" fill="#4B5043"/>
<path fill-rule="evenodd" clip-rule="evenodd" d="M143.228 234.648C144.225 234.595 145.223 234.541 146.22 234.487C145.223 234.541 144.225 234.594 143.228 234.648Z" fill="#4B5043"/>
<path fill-rule="evenodd" clip-rule="evenodd" d="M83.0539 63.4919C83.9197 63.5695 84.7856 63.6471 85.6506 63.7239C84.7847 63.6467 83.9193 63.5691 83.0539 63.4919Z" fill="#4B5043"/>
<path fill-rule="evenodd" clip-rule="evenodd" d="M327.513 102.353C327.54 103.205 327.567 104.058 327.594 104.909C327.567 104.055 327.54 103.204 327.513 102.353Z" fill="#4B5043"/>
<path fill-rule="evenodd" clip-rule="evenodd" d="M345.381 236.106C346.285 236.163 347.188 236.219 348.092 236.276C347.183 236.318 346.26 236.585 345.381 236.106Z" fill="#4B5043"/>
<path fill-rule="evenodd" clip-rule="evenodd" d="M340.032 135.221C340.039 134.408 340.046 133.594 340.052 132.782C340.046 133.596 340.039 134.409 340.032 135.221Z" fill="#4B5043"/>
<path fill-rule="evenodd" clip-rule="evenodd" d="M337.719 160.783C338.512 160.794 339.305 160.805 340.098 160.816C339.305 160.805 338.512 160.794 337.719 160.783Z" fill="#4B5043"/>
<path fill-rule="evenodd" clip-rule="evenodd" d="M138.079 146.48C138.059 147.1 138.039 147.72 138.02 148.337C138.04 147.716 138.06 147.098 138.079 146.48Z" fill="#4B5043"/>
<path fill-rule="evenodd" clip-rule="evenodd" d="M350.918 120.225C350.885 120.842 350.853 121.459 350.821 122.073C350.854 121.455 350.886 120.84 350.918 120.225Z" fill="#4B5043"/>
<path fill-rule="evenodd" clip-rule="evenodd" d="M333.998 233.361C334.575 233.32 335.152 233.28 335.728 233.242C335.294 233.6 334.858 233.629 333.998 233.361Z" fill="#4B5043"/>
<path fill-rule="evenodd" clip-rule="evenodd" d="M330.137 152.705C330.177 153.37 330.217 154.035 330.256 154.698C330.216 154.033 330.177 153.369 330.137 152.705Z" fill="#4B5043"/>
<path fill-rule="evenodd" clip-rule="evenodd" d="M114.418 47.7256C114.424 47.0833 114.43 46.4409 114.437 45.801C114.431 46.4442 114.425 47.0849 114.418 47.7256Z" fill="#4B5043"/>
<path fill-rule="evenodd" clip-rule="evenodd" d="M330.836 160.918L332.986 160.869C332.276 161.223 331.56 161.235 330.836 160.918Z" fill="#4B5043"/>
<path fill-rule="evenodd" clip-rule="evenodd" d="M350.674 165.658C350.167 165.663 349.66 165.667 349.156 165.673C349.665 165.668 350.17 165.663 350.674 165.658Z" fill="#4B5043"/>
<path fill-rule="evenodd" clip-rule="evenodd" d="M164.982 233.616C165.683 233.626 166.385 233.635 167.087 233.645C166.38 234.01 165.677 234.061 164.982 233.616Z" fill="#4B5043"/>
<path fill-rule="evenodd" clip-rule="evenodd" d="M327.76 107.83C327.795 108.498 327.83 109.166 327.864 109.831C327.83 109.163 327.795 108.497 327.76 107.83Z" fill="#4B5043"/>
<path fill-rule="evenodd" clip-rule="evenodd" d="M100.371 65.0585C100.972 64.7535 101.577 64.7024 102.189 65.0255C101.583 65.0367 100.977 65.0478 100.371 65.0585Z" fill="#4B5043"/>
<path fill-rule="evenodd" clip-rule="evenodd" d="M308.114 115.539C308.164 116.102 308.214 116.665 308.263 117.226C308.213 116.663 308.164 116.101 308.114 115.539Z" fill="#4B5043"/>
<path fill-rule="evenodd" clip-rule="evenodd" d="M358.848 102.399C358.54 101.848 358.551 101.3 358.864 100.757C358.858 101.305 358.854 101.853 358.848 102.399Z" fill="#4B5043"/>
<path fill-rule="evenodd" clip-rule="evenodd" d="M327.858 83.2729C327.858 83.8301 327.859 84.3877 327.859 84.9432C327.858 84.3848 327.858 83.8289 327.858 83.2729Z" fill="#4B5043"/>
<path fill-rule="evenodd" clip-rule="evenodd" d="M349.387 160.517C350.005 160.321 350.624 160.045 351.239 160.523C350.622 160.521 350.005 160.519 349.387 160.517Z" fill="#4B5043"/>
<path fill-rule="evenodd" clip-rule="evenodd" d="M64.3408 234.397C64.9106 234.139 65.4791 234.003 66.0404 234.416C65.4735 234.409 64.9074 234.403 64.3408 234.397Z" fill="#4B5043"/>
<path fill-rule="evenodd" clip-rule="evenodd" d="M180.877 233.567C181.486 233.293 182.094 233.142 182.695 233.586C182.089 233.58 181.483 233.574 180.877 233.567Z" fill="#4B5043"/>
<path fill-rule="evenodd" clip-rule="evenodd" d="M45.2597 152.198C45.3053 152.765 45.3514 153.333 45.3967 153.9C45.3506 153.331 45.3049 152.765 45.2597 152.198Z" fill="#4B5043"/>
<path fill-rule="evenodd" clip-rule="evenodd" d="M186.701 119.486C187.3 119.261 187.897 119.144 188.486 119.519C187.891 119.508 187.296 119.497 186.701 119.486Z" fill="#4B5043"/>
<path fill-rule="evenodd" clip-rule="evenodd" d="M327.751 136.391C327.784 136.946 327.817 137.502 327.85 138.055C327.817 137.5 327.784 136.946 327.751 136.391Z" fill="#4B5043"/>
<path fill-rule="evenodd" clip-rule="evenodd" d="M44.8722 86.3049C44.8226 86.7521 44.7729 87.1996 44.7236 87.6442C44.7733 87.1963 44.8226 86.7508 44.8722 86.3049Z" fill="#4B5043"/>
<path fill-rule="evenodd" clip-rule="evenodd" d="M10.1305 215.973C10.0997 216.408 10.0692 216.843 10.0388 217.276C10.0704 216.84 10.1005 216.406 10.1305 215.973Z" fill="#4B5043"/>
<path fill-rule="evenodd" clip-rule="evenodd" d="M340.298 139.329C340.265 138.879 340.231 138.429 340.197 137.981C340.231 138.432 340.265 138.88 340.298 139.329Z" fill="#4B5043"/>
<path fill-rule="evenodd" clip-rule="evenodd" d="M137.876 150.309C137.976 150.637 138.076 150.965 138.176 151.293C137.509 151.459 137.41 151.131 137.876 150.309Z" fill="#4B5043"/>
<path fill-rule="evenodd" clip-rule="evenodd" d="M177.923 118.746C178.465 118.744 179.008 118.742 179.55 118.739C179.008 119.004 178.466 119.186 177.923 118.746Z" fill="#4B5043"/>
<path fill-rule="evenodd" clip-rule="evenodd" d="M45.5638 154.886C45.5822 155.383 45.6006 155.88 45.6183 156.374C45.5994 155.878 45.5814 155.382 45.5638 154.886Z" fill="#4B5043"/>
<path fill-rule="evenodd" clip-rule="evenodd" d="M309.431 160.12C309.451 160.577 309.47 161.034 309.49 161.488C309.471 161.03 309.451 160.575 309.431 160.12Z" fill="#4B5043"/>
<path fill-rule="evenodd" clip-rule="evenodd" d="M40.1862 235.497C40.701 235.145 41.217 235.176 41.7339 235.491C41.2178 235.493 40.7018 235.495 40.1862 235.497Z" fill="#4B5043"/>
<path fill-rule="evenodd" clip-rule="evenodd" d="M53.7436 79.9197C53.7712 80.3862 53.7993 80.8532 53.8281 81.3169C53.8005 80.8495 53.772 80.3846 53.7436 79.9197Z" fill="#4B5043"/>
<path fill-rule="evenodd" clip-rule="evenodd" d="M37.5074 235.546C38.0426 235.548 38.5779 235.55 39.1128 235.553C38.5759 235.929 38.041 235.947 37.5074 235.546Z" fill="#4B5043"/>
<path fill-rule="evenodd" clip-rule="evenodd" d="M333.908 72.5957C333.912 72.1217 333.916 71.6481 333.92 71.1753C333.916 71.6497 333.912 72.1225 333.908 72.5957Z" fill="#4B5043"/>
<path fill-rule="evenodd" clip-rule="evenodd" d="M88.1658 64.3069C88.6779 64.3758 89.1899 64.4447 89.7015 64.5132C89.1895 64.4443 88.6775 64.3758 88.1658 64.3069Z" fill="#4B5043"/>
<path fill-rule="evenodd" clip-rule="evenodd" d="M42.9816 105.214C42.9884 105.656 42.9952 106.099 43.0032 106.54C42.9964 106.096 42.9892 105.655 42.9816 105.214Z" fill="#4B5043"/>
<path fill-rule="evenodd" clip-rule="evenodd" d="M337.355 105.15C337.327 104.699 337.299 104.248 337.271 103.799C337.299 104.251 337.327 104.701 337.355 105.15Z" fill="#4B5043"/>
<path fill-rule="evenodd" clip-rule="evenodd" d="M217.931 235.017C218.562 235.076 219.194 235.135 219.826 235.194C219.194 235.134 218.562 235.076 217.931 235.017Z" fill="#4B5043"/>
<path fill-rule="evenodd" clip-rule="evenodd" d="M215.819 218.132C215.478 218.138 215.137 218.143 214.798 218.151C215.141 218.146 215.48 218.139 215.819 218.132Z" fill="#4B5043"/>
<path fill-rule="evenodd" clip-rule="evenodd" d="M215.848 234.759C216.378 234.813 216.909 234.867 217.438 234.92C216.908 234.866 216.378 234.813 215.848 234.759Z" fill="#4B5043"/>
<path fill-rule="evenodd" clip-rule="evenodd" d="M120.484 197.918C121.173 201.94 115.119 205.874 114.639 200.156C114.463 198.065 115.818 196.595 117.334 195.317C119.486 193.504 120.689 195.24 120.484 197.918Z" fill="#4B5043"/>
<path fill-rule="evenodd" clip-rule="evenodd" d="M53.7455 148.847C55.1719 149.449 66.0693 153.115 60.4088 154.959C58.9104 155.447 56.6455 155.52 55.3465 154.66C53.784 153.625 52.2078 150.571 53.7455 148.847Z" fill="#4B5043"/>
<path fill-rule="evenodd" clip-rule="evenodd" d="M56.4275 94.3791C60.1264 93.9357 63.5343 100.208 58.9741 100.004C55.6546 99.8555 51.1905 94.3791 56.4275 94.3791Z" fill="#4B5043"/>
<path fill-rule="evenodd" clip-rule="evenodd" d="M69.6592 109.757C72.7479 112.539 67.0229 118.766 64.75 116.356C63.5893 115.125 64.6598 112.473 65.6178 111.443C66.601 110.386 68.3503 110.188 69.6592 109.757Z" fill="#4B5043"/>
<path fill-rule="evenodd" clip-rule="evenodd" d="M78.8542 181.88C77.0309 182.179 69.0121 184.884 70.6845 179.971C71.3223 178.097 73.1012 178.653 74.7275 178.739C77.3486 178.877 78.8542 178.748 78.8542 181.88Z" fill="#4B5043"/>
<path fill-rule="evenodd" clip-rule="evenodd" d="M73.5724 194.536C76.302 196.043 72.3119 204.48 70.0494 202.685C66.9103 200.194 71.2037 195.293 73.5724 194.536Z" fill="#4B5043"/>
<path fill-rule="evenodd" clip-rule="evenodd" d="M85.4775 187.754C86.8048 187.194 93.0619 193.407 90.68 195.136C89.4592 196.022 87.1462 194.503 86.4102 193.587C85.0303 191.87 84.9053 189.751 85.4775 187.754Z" fill="#4B5043"/>
<path fill-rule="evenodd" clip-rule="evenodd" d="M49.3772 136.967C50.7338 137.197 53.0761 137.27 53.1638 139.238C53.2407 140.967 51.1401 141.528 49.6613 141.663C48.1268 141.804 46.0955 141.357 46.0662 139.365C46.0354 137.217 49.3291 137.346 49.3772 136.967Z" fill="#4B5043"/>
<path fill-rule="evenodd" clip-rule="evenodd" d="M82.8311 222.608C84.2759 223.514 91.0149 226.774 88.1262 229.129C87.0452 230.011 83.7682 228.19 83.0306 227.265C82.1504 226.161 81.2902 223.573 82.8311 222.608Z" fill="#4B5043"/>
<path fill-rule="evenodd" clip-rule="evenodd" d="M101.565 198.952C101.356 195.353 107.237 193.921 106.018 199.029C105.674 200.469 105.342 202.655 103.617 202.738C101.578 202.837 101.504 200.347 101.565 198.952Z" fill="#4B5043"/>
<path fill-rule="evenodd" clip-rule="evenodd" d="M83.3984 136.374C83.4393 139.104 78.3726 141.512 78.3334 137.185C78.2985 133.318 83.5876 132.187 83.3984 136.374Z" fill="#4B5043"/>
<path fill-rule="evenodd" clip-rule="evenodd" d="M80.0526 122.156C81.301 122.572 82.9601 122.786 83.0699 124.423C83.1865 126.156 81.6271 126.928 80.224 126.83C79.0733 126.751 77.3706 125.871 77.1614 124.582C76.8549 122.69 78.6434 122.567 80.0526 122.156Z" fill="#4B5043"/>
<path fill-rule="evenodd" clip-rule="evenodd" d="M56.8378 172.136C56.8165 169.883 61.1893 167.176 61.9946 169.79C62.2522 170.626 60.1913 174.377 59.5057 174.657C57.692 175.401 57.4388 173.668 56.8378 172.136Z" fill="#4B5043"/>
<path fill-rule="evenodd" clip-rule="evenodd" d="M92.6704 209.628C91.1928 210.993 86.7603 214.829 87.0917 209.68C87.3032 206.391 93.0602 206.563 92.6704 209.628Z" fill="#4B5043"/>
<path fill-rule="evenodd" clip-rule="evenodd" d="M164.886 224.343C165.37 222.178 172.305 225.934 169.99 228.668C169.214 229.586 167.183 228.756 166.402 228.212C164.857 227.135 164.823 226.141 164.886 224.343Z" fill="#4B5043"/>
<path fill-rule="evenodd" clip-rule="evenodd" d="M126.249 178.002C126.519 177.037 126.82 175.33 127.711 174.714C129.325 173.6 130.73 175.281 130.731 177.053C130.731 180.357 127.087 181.4 126.249 178.002Z" fill="#4B5043"/>
<path fill-rule="evenodd" clip-rule="evenodd" d="M109.062 216.642C110.862 217.068 114.871 221.587 112.546 223.43C110.309 225.204 107.332 217.992 109.062 216.642Z" fill="#4B5043"/>
<path fill-rule="evenodd" clip-rule="evenodd" d="M110.776 182.44C113.091 182.631 116.273 186.501 112.674 187.116C109.86 187.598 106.586 183.388 110.776 182.44Z" fill="#4B5043"/>
<path fill-rule="evenodd" clip-rule="evenodd" d="M131.734 200.25C132.315 198.231 138.056 200.394 137.733 202.617C137.562 203.799 135.214 204.076 133.98 203.764C132.164 203.304 131.692 202.073 131.734 200.25Z" fill="#4B5043"/>
<path fill-rule="evenodd" clip-rule="evenodd" d="M64.0564 87.4937C64.098 84.8837 68.956 83.8199 69.3118 86.4501C69.6335 88.8264 63.9955 91.3549 64.0564 87.4937Z" fill="#4B5043"/>
<path fill-rule="evenodd" clip-rule="evenodd" d="M130.129 227.143C130.479 225.831 130.63 224.251 132.218 224.078C134.036 223.88 133.982 225.32 133.769 226.811C133.187 230.869 130.966 231.072 130.129 227.143Z" fill="#4B5043"/>
<path fill-rule="evenodd" clip-rule="evenodd" d="M53.413 118.546C50.8804 119.136 46.2421 114.101 49.0771 113.02C51.0748 112.258 53.413 117.027 53.413 118.546Z" fill="#4B5043"/>
<path fill-rule="evenodd" clip-rule="evenodd" d="M85.7147 157.66C84.4258 158.287 84.1289 158.667 83.1388 157.639C82.2766 156.743 82.3147 154.248 83.0547 153.317C85.8889 149.75 85.8224 156.217 85.7147 157.66Z" fill="#4B5043"/>
<path fill-rule="evenodd" clip-rule="evenodd" d="M96.2302 150.426C97.5744 150.602 101.569 154.514 99.4888 156.068C96.9402 157.972 95.4982 152.007 96.2302 150.426Z" fill="#4B5043"/>
<path fill-rule="evenodd" clip-rule="evenodd" d="M125.313 151.456C124.336 155.34 121.897 152.726 122.035 149.787C122.257 145.079 124.785 149.179 125.313 151.456Z" fill="#4B5043"/>
<path fill-rule="evenodd" clip-rule="evenodd" d="M140.142 213.841C141.795 214.547 144.039 221.07 141.678 221.42C139.026 221.813 139.909 215.199 140.142 213.841Z" fill="#4B5043"/>
<path fill-rule="evenodd" clip-rule="evenodd" d="M119.498 210.176C121.39 209.517 122.083 213.636 120.984 214.401C118.565 216.085 119.075 211.148 119.498 210.176Z" fill="#4B5043"/>
<path fill-rule="evenodd" clip-rule="evenodd" d="M101.565 198.951C101.541 199.498 101.517 200.045 101.492 200.589C101.516 200.041 101.54 199.496 101.565 198.951Z" fill="#4B5043"/>
<path fill-rule="evenodd" clip-rule="evenodd" d="M164.886 224.344C164.866 224.904 164.847 225.465 164.826 226.023C164.845 225.461 164.865 224.902 164.886 224.344Z" fill="#4B5043"/>
<path fill-rule="evenodd" clip-rule="evenodd" d="M131.734 200.25C131.724 200.726 131.712 201.201 131.7 201.674C131.711 201.197 131.723 200.724 131.734 200.25Z" fill="#4B5043"/>
<path fill-rule="evenodd" clip-rule="evenodd" d="M340.955 192.064C344.877 191.934 349.251 190.41 353.105 190.895C354.166 191.029 356.608 191.304 354.908 192.929C354.095 193.706 350.204 193.304 349.026 193.562C341.826 195.135 333.652 196.15 326.269 196.019C322.813 195.958 319.332 195.672 315.877 195.484C312.425 195.295 312.086 193.847 315.97 193.386C320.004 192.908 324.144 193.085 328.198 193.081C332.46 193.075 336.701 192.358 340.955 192.064Z" fill="#4B5043"/>
<path fill-rule="evenodd" clip-rule="evenodd" d="M349.564 182.31C349.187 183.419 348.856 185.965 347.409 186.132C345.383 186.366 345.048 182.775 345.123 181.462C345.213 179.877 345.766 177.244 347.674 177.793C349.286 178.257 349.447 181.041 349.564 182.31Z" fill="#4B5043"/>
<path fill-rule="evenodd" clip-rule="evenodd" d="M337.301 181.497C337.597 180.309 337.742 177.631 339.37 177.54C341.189 177.438 341.708 180.229 341.696 181.566C341.684 182.836 341.23 185.233 339.781 185.527C337.818 185.924 337.642 182.855 337.301 181.497Z" fill="#4B5043"/>
<path fill-rule="evenodd" clip-rule="evenodd" d="M316.877 183.628C316.287 185.056 315.898 187.023 314.074 186.049C312.664 185.296 312.467 182.26 312.733 180.87C313.009 179.43 313.592 177.778 315.195 178.425C317.044 179.173 316.857 182.056 316.877 183.628Z" fill="#4B5043"/>
<path fill-rule="evenodd" clip-rule="evenodd" d="M332.343 182.31C330.605 187.75 327.434 184.069 328.638 180.007C329.897 175.762 332.183 179.885 332.343 182.31Z" fill="#4B5043"/>
<path fill-rule="evenodd" clip-rule="evenodd" d="M323.873 182.579C323.39 183.537 322.877 185.604 321.575 185.386C319.98 185.119 319.929 181.949 320.104 180.769C320.256 179.735 320.706 178.014 322.041 178.036C323.971 178.068 323.841 181.339 323.873 182.579Z" fill="#4B5043"/>
<path fill-rule="evenodd" clip-rule="evenodd" d="M358.551 183.623C357.257 186.621 355.476 184.039 356.046 181.91C356.891 178.753 358.477 181.55 358.551 183.623Z" fill="#4B5043"/>
<path fill-rule="evenodd" clip-rule="evenodd" d="M326.857 193.083C325.444 193.078 324.03 193.072 322.617 193.067C324.031 192.792 325.446 192.685 326.857 193.083Z" fill="#4B5043"/>
<path fill-rule="evenodd" clip-rule="evenodd" d="M354.944 190.882C353.718 190.89 352.492 190.898 351.267 190.906C352.49 190.528 353.716 190.52 354.944 190.882Z" fill="#4B5043"/>
<path fill-rule="evenodd" clip-rule="evenodd" d="M316.877 183.628C316.868 182.901 316.858 182.174 316.85 181.448C317.213 182.172 317.187 182.898 316.877 183.628Z" fill="#4B5043"/>
<path fill-rule="evenodd" clip-rule="evenodd" d="M324.567 196.004C325.136 196.01 325.705 196.015 326.269 196.02C325.699 196.015 325.133 196.01 324.567 196.004Z" fill="#4B5043"/>
<path fill-rule="evenodd" clip-rule="evenodd" d="M315.013 195.484C315.59 195.484 316.166 195.483 316.738 195.484C316.16 195.484 315.587 195.484 315.013 195.484Z" fill="#4B5043"/>
<path fill-rule="evenodd" clip-rule="evenodd" d="M319.738 193.147C318.937 193.215 318.135 193.282 317.334 193.35C318.136 193.282 318.937 193.215 319.738 193.147Z" fill="#4B5043"/>
<path fill-rule="evenodd" clip-rule="evenodd" d="M330.572 193.075C329.78 193.076 328.99 193.078 328.198 193.08C328.989 192.736 329.78 192.726 330.572 193.075Z" fill="#4B5043"/>
<path fill-rule="evenodd" clip-rule="evenodd" d="M323.873 182.579C323.853 181.821 323.834 181.063 323.816 180.306C323.835 181.065 323.854 181.822 323.873 182.579Z" fill="#4B5043"/>
<path fill-rule="evenodd" clip-rule="evenodd" d="M312.733 180.87C312.729 181.609 312.724 182.348 312.719 183.085C312.723 182.345 312.728 181.608 312.733 180.87Z" fill="#4B5043"/>
<path fill-rule="evenodd" clip-rule="evenodd" d="M345.451 191.789C344.751 191.854 344.052 191.919 343.353 191.984C344.053 191.919 344.752 191.854 345.451 191.789Z" fill="#4B5043"/>
<path fill-rule="evenodd" clip-rule="evenodd" d="M358.551 183.623C358.528 182.978 358.505 182.332 358.483 181.687C358.506 182.333 358.528 182.978 358.551 183.623Z" fill="#4B5043"/>
<path fill-rule="evenodd" clip-rule="evenodd" d="M328.794 196.025C329.281 196.016 329.768 196.006 330.25 195.998C329.761 196.008 329.278 196.016 328.794 196.025Z" fill="#4B5043"/>
<path fill-rule="evenodd" clip-rule="evenodd" d="M349.564 182.31C349.521 181.846 349.479 181.381 349.436 180.919C349.479 181.384 349.522 181.846 349.564 182.31Z" fill="#4B5043"/>
<path fill-rule="evenodd" clip-rule="evenodd" d="M332.343 182.31C332.312 181.833 332.28 181.356 332.249 180.881C332.281 181.358 332.312 181.834 332.343 182.31Z" fill="#4B5043"/>
<path fill-rule="evenodd" clip-rule="evenodd" d="M81.2782 42.2857C79.3635 41.767 79.0045 38.9892 79.3122 37.283C79.6611 36.4607 80.0101 35.6388 80.3591 34.8165C80.2225 34.5125 80.0862 34.2085 79.95 33.9045C80.1251 32.2111 79.6776 31.4753 81.5627 32.1611C85.0644 33.4358 85.6241 42.155 81.2782 42.2857Z" fill="#4B5043"/>
<path fill-rule="evenodd" clip-rule="evenodd" d="M109.621 36.9148C111.199 36.7866 114.064 38.6831 112.494 40.5179C111.521 41.6546 108.315 41.1169 107.007 41.3543C105.273 41.669 103.464 42.0996 104.402 39.4177C105.139 37.3115 107.771 36.8598 109.621 36.9148Z" fill="#4B5043"/>
<path fill-rule="evenodd" clip-rule="evenodd" d="M107.961 49.5298C106.359 48.2033 107.074 42.1615 109.513 43.2485C112.021 44.3674 109.298 48.6579 107.961 49.5298Z" fill="#4B5043"/>
<path fill-rule="evenodd" clip-rule="evenodd" d="M79.3121 37.283C79.3121 37.9187 79.3117 38.5548 79.3105 39.1877C78.9764 38.5507 78.9868 37.9166 79.3121 37.283Z" fill="#4B5043"/>
<path fill-rule="evenodd" clip-rule="evenodd" d="M81.2782 42.2858C81.6047 42.2763 81.9317 42.2663 82.2542 42.2576C81.9261 42.2684 81.6023 42.2771 81.2782 42.2858Z" fill="#4B5043"/>
<path fill-rule="evenodd" clip-rule="evenodd" d="M279.115 216.284C278.965 219.032 276.106 217 276.309 215.161C276.677 211.825 278.504 215.122 279.115 216.284Z" fill="#4B5043"/>
</svg>
