<svg width="85" height="85" viewBox="0 0 85 85" fill="none" xmlns="http://www.w3.org/2000/svg">
<path d="M61.7596 77.6935H23.2404C20.8921 77.6935 18.64 76.7606 16.9796 75.1002C15.3191 73.4397 14.3862 71.1876 14.3862 68.8393V65.9104C14.3862 51.8535 26.9981 40.4104 42.5 40.4104C58.0019 40.4104 70.6137 51.8464 70.6137 65.9104V68.8393C70.6137 71.1876 69.6809 73.4397 68.0204 75.1002C66.3599 76.7606 64.1078 77.6935 61.7596 77.6935ZM42.5 43.9591C28.9496 43.9591 17.9279 53.8049 17.9279 65.9174V68.8464C17.9279 70.2554 18.4876 71.6066 19.4839 72.6029C20.4802 73.5992 21.8314 74.1589 23.2404 74.1589H61.7596C63.1685 74.1589 64.5198 73.5992 65.5161 72.6029C66.5124 71.6066 67.0721 70.2554 67.0721 68.8464V65.9104C67.0721 53.805 56.0504 43.9591 42.5 43.9591ZM42.5 35.1014C39.7512 35.1021 37.0639 34.2876 34.778 32.761C32.4921 31.2343 30.7103 29.0641 29.6579 26.5247C28.6054 23.9853 28.3297 21.1909 28.8656 18.4948C29.4014 15.7987 30.7247 13.3221 32.6682 11.3781C34.6116 9.43418 37.0879 8.11022 39.7839 7.5737C42.4798 7.03717 45.2743 7.31218 47.814 8.36395C50.3536 9.41571 52.5243 11.197 54.0516 13.4825C55.5788 15.768 56.394 18.4551 56.394 21.2039C56.3911 24.8883 54.9265 28.421 52.3216 31.0266C49.7167 33.6321 46.1844 35.0977 42.5 35.1014ZM42.5 10.8516C40.4515 10.8509 38.4488 11.4578 36.7453 12.5954C35.0417 13.7331 33.7138 15.3504 32.9296 17.2428C32.1453 19.1352 31.94 21.2177 32.3394 23.2269C32.7389 25.2361 33.7253 27.0816 35.1738 28.5301C36.6223 29.9786 38.4678 30.965 40.477 31.3645C42.4862 31.7639 44.5687 31.5586 46.4611 30.7743C48.3535 29.9901 49.9708 28.6622 51.1085 26.9586C52.2461 25.2551 52.853 23.2524 52.8523 21.2039C52.8495 18.4592 51.7579 15.8277 49.8171 13.8868C47.8762 11.946 45.2447 10.8544 42.5 10.8516Z" fill="#FFD166"/>
</svg>
