<svg width="78" height="78" viewBox="0 0 78 78" fill="none" xmlns="http://www.w3.org/2000/svg">
<path d="M14 51.5H1.5M1.5 76.5H51.5C55.3833 76.5 57.325 76.5 58.8542 75.8667C59.8659 75.4479 60.7852 74.8338 61.5595 74.0595C62.3338 73.2852 62.9479 72.3659 63.3667 71.3542C64 69.825 64 67.8833 64 64C64 60.1167 64 58.175 63.3667 56.6458C62.9479 55.6341 62.3338 54.7148 61.5595 53.9405C60.7852 53.1662 59.8659 52.5521 58.8542 52.1333C57.325 51.5 55.3833 51.5 51.5 51.5H43.1667H64C67.8833 51.5 69.825 51.5 71.3542 50.8667C72.3659 50.4479 73.2852 49.8338 74.0595 49.0595C74.8338 48.2852 75.4479 47.3659 75.8667 46.3542C76.5 44.825 76.5 42.8833 76.5 39C76.5 35.1167 76.5 33.175 75.8667 31.6458C75.4479 30.6341 74.8338 29.7148 74.0595 28.9405C73.2852 28.1662 72.3659 27.5521 71.3542 27.1333C69.825 26.5 67.8833 26.5 64 26.5H1.5H47.3333C51.2167 26.5 53.1583 26.5 54.6875 25.8667C55.6992 25.4479 56.6185 24.8338 57.3928 24.0595C58.1671 23.2852 58.7812 22.3659 59.2 21.3542C59.8333 19.825 59.8333 17.8833 59.8333 14C59.8333 10.1167 59.8333 8.175 59.2 6.64583C58.7812 5.63409 58.1671 4.7148 57.3928 3.94051C56.6185 3.16623 55.6992 2.55214 54.6875 2.13333C53.1583 1.5 51.2167 1.5 47.3333 1.5H1.5" stroke="#FFD166" stroke-width="3" stroke-linecap="round" stroke-linejoin="round"/>
<path d="M41.5 29.5V55.0337C41.5 59.6331 41.5 61.9307 40.033 62.4174C38.5615 62.9124 36.901 61.1634 33.5845 57.6737L31.4155 55.3967C29.827 53.7261 29.035 52.8928 28 52.8928C26.965 52.8928 26.173 53.7261 24.58 55.3967L22.42 57.6737C19.099 61.1634 17.4385 62.9124 15.9715 62.4174C14.5 61.9307 14.5 59.6331 14.5 55.0337V29.5" stroke="#FFD166" stroke-width="1.5" stroke-linecap="round" stroke-linejoin="round"/>
</svg>
